HIERARCHY
ROOT hip
{
  OFFSET 0 0 0
  CHANNELS 6 Xposition Yposition Zposition Zrotation Yrotation Xrotation
  JOINT abdomen
  {
    OFFSET 0 20.6881 -0.73152
    CHANNELS 3 Zrotation Xrotation Yrotation
    JOINT chest
    {
      OFFSET 0 11.7043 -0.48768
      CHANNELS 3 Zrotation Xrotation Yrotation
      JOINT neck
      {
        OFFSET 0 22.1894 -2.19456
        CHANNELS 3 Zrotation Xrotation Yrotation
        JOINT head
        {
          OFFSET -0.24384 7.07133 1.2192
          CHANNELS 3 Zrotation Xrotation Yrotation
          JOINT leftEye
          {
            OFFSET 4.14528 8.04674 8.04672
            CHANNELS 3 Zrotation Xrotation Yrotation
            End Site
            {
              OFFSET 1 0 0
            }
          }
          JOINT rightEye
          {
            OFFSET -3.6576 8.04674 8.04672
            CHANNELS 3 Zrotation Xrotation Yrotation
            End Site
            {
              OFFSET 1 0 0
            }
          }
        }
      }
      JOINT rCollar
      {
        OFFSET -2.68224 19.2634 -4.8768
        CHANNELS 3 Zrotation Xrotation Yrotation
        JOINT rShldr
        {
          OFFSET -8.77824 -1.95073 1.46304
          CHANNELS 3 Zrotation Xrotation Yrotation
          JOINT rForeArm
          {
            OFFSET -28.1742 -1.7115 0.48768
            CHANNELS 3 Zrotation Xrotation Yrotation
            JOINT rHand
            {
              OFFSET -22.5879 0.773209 7.07136
              CHANNELS 3 Zrotation Xrotation Yrotation
              JOINT rThumb1
              {
                OFFSET -1.2192 -0.487915 3.41376
                CHANNELS 3 Zrotation Xrotation Yrotation
                JOINT rThumb2
                {
                  OFFSET -3.37035 -0.52449 3.41376
                  CHANNELS 3 Zrotation Xrotation Yrotation
                  End Site
                  {
                    OFFSET -1.78271 -1.18214 1.43049
                  }
                }
              }
              JOINT rIndex1
              {
                OFFSET -7.75947 0.938293 5.60832
                CHANNELS 3 Zrotation Xrotation Yrotation
                JOINT rIndex2
                {
                  OFFSET -2.54057 -0.884171 1.56538
                  CHANNELS 3 Zrotation Xrotation Yrotation
                  End Site
                  {
                    OFFSET -1.62519 -0.234802 1.16502
                  }
                }
              }
              JOINT rMid1
              {
                OFFSET -8.24714 1.18213 3.41376
                CHANNELS 3 Zrotation Xrotation Yrotation
                JOINT rMid2
                {
                  OFFSET -3.10165 -0.590103 1.0647
                  CHANNELS 3 Zrotation Xrotation Yrotation
                  End Site
                  {
                    OFFSET -2.48547 -0.328903 0.83742
                  }
                }
              }
              JOINT rRing1
              {
                OFFSET -8.82822 0.546677 1.51678
                CHANNELS 3 Zrotation Xrotation Yrotation
                JOINT rRing2
                {
                  OFFSET -2.60934 -0.819778 -0.0198488
                  CHANNELS 3 Zrotation Xrotation Yrotation
                  End Site
                  {
                    OFFSET -2.33842 -0.294052 0.168128
                  }
                }
              }
              JOINT rPinky1
              {
                OFFSET -8.27202 -0.0477905 -0.4584
                CHANNELS 3 Zrotation Xrotation Yrotation
                JOINT rPinky2
                {
                  OFFSET -1.82734 -0.647385 -0.700984
                  CHANNELS 3 Zrotation Xrotation Yrotation
                  End Site
                  {
                    OFFSET -1.69225 -0.51767 -0.607171
                  }
                }
              }
            }
          }
        }
      }
      JOINT lCollar
      {
        OFFSET 2.68224 19.2634 -4.8768
        CHANNELS 3 Zrotation Xrotation Yrotation
        JOINT lShldr
        {
          OFFSET 8.77824 -1.95073 1.46304
          CHANNELS 3 Zrotation Xrotation Yrotation
          JOINT lForeArm
          {
            OFFSET 28.1742 -1.7115 0.48768
            CHANNELS 3 Zrotation Xrotation Yrotation
            JOINT lHand
            {
              OFFSET 22.5879 0.773209 7.07136
              CHANNELS 3 Zrotation Xrotation Yrotation
              JOINT lThumb1
              {
                OFFSET 1.2192 -0.487915 3.41376
                CHANNELS 3 Zrotation Xrotation Yrotation
                JOINT lThumb2
                {
                  OFFSET 3.37035 -0.52449 3.41376
                  CHANNELS 3 Zrotation Xrotation Yrotation
                  End Site
                  {
                    OFFSET 1.78271 -1.18214 1.43049
                  }
                }
              }
              JOINT lIndex1
              {
                OFFSET 7.75947 0.938293 5.60832
                CHANNELS 3 Zrotation Xrotation Yrotation
                JOINT lIndex2
                {
                  OFFSET 2.54057 -0.884171 1.56538
                  CHANNELS 3 Zrotation Xrotation Yrotation
                  End Site
                  {
                    OFFSET 1.62519 -0.234802 1.16502
                  }
                }
              }
              JOINT lMid1
              {
                OFFSET 8.24714 1.18213 3.41376
                CHANNELS 3 Zrotation Xrotation Yrotation
                JOINT lMid2
                {
                  OFFSET 3.10165 -0.590103 1.0647
                  CHANNELS 3 Zrotation Xrotation Yrotation
                  End Site
                  {
                    OFFSET 2.48547 -0.328903 0.83742
                  }
                }
              }
              JOINT lRing1
              {
                OFFSET 8.82822 0.546677 1.51678
                CHANNELS 3 Zrotation Xrotation Yrotation
                JOINT lRing2
                {
                  OFFSET 2.60934 -0.819778 -0.0198488
                  CHANNELS 3 Zrotation Xrotation Yrotation
                  End Site
                  {
                    OFFSET 2.33842 -0.294052 0.168128
                  }
                }
              }
              JOINT lPinky1
              {
                OFFSET 8.27202 -0.0477905 -0.4584
                CHANNELS 3 Zrotation Xrotation Yrotation
                JOINT lPinky2
                {
                  OFFSET 1.82734 -0.647385 -0.700984
                  CHANNELS 3 Zrotation Xrotation Yrotation
                  End Site
                  {
                    OFFSET 1.69225 -0.51767 -0.607171
                  }
                }
              }
            }
          }
        }
      }
    }
  }
  JOINT rButtock
  {
    OFFSET -8.77824 4.35084 1.2192
    CHANNELS 3 Zrotation Xrotation Yrotation
    JOINT rThigh
    {
      OFFSET 0 -1.70687 -2.19456
      CHANNELS 3 Zrotation Xrotation Yrotation
      JOINT rShin
      {
        OFFSET 0 -36.8199 0.73152
        CHANNELS 3 Zrotation Xrotation Yrotation
        JOINT rFoot
        {
          OFFSET 0.73152 -45.1104 -5.12064
          CHANNELS 3 Zrotation Xrotation Yrotation
          End Site
          {
            OFFSET -1.1221 -3.69964 12.103
          }
        }
      }
    }
  }
  JOINT lButtock
  {
    OFFSET 8.77824 4.35084 1.2192
    CHANNELS 3 Zrotation Xrotation Yrotation
    JOINT lThigh
    {
      OFFSET 0 -1.70687 -2.19456
      CHANNELS 3 Zrotation Xrotation Yrotation
      JOINT lShin
      {
        OFFSET 0 -36.8199 0.73152
        CHANNELS 3 Zrotation Xrotation Yrotation
        JOINT lFoot
        {
          OFFSET -0.73152 -45.1104 -5.12064
          CHANNELS 3 Zrotation Xrotation Yrotation
          End Site
          {
            OFFSET 1.1221 -3.69964 12.103
          }
        }
      }
    }
  }
}
MOTION
Frames:	4
Frame Time:	0.03333
1.742731712758541 -1.59506094455719 15.647512510418892 -9.328685402870178 -22.984101176261902 22.57127434015274 11.587121486663818 9.899045750498772 13.790173977613449 -1.5567821078002453 -7.676264941692352 4.4650207087397575 -1.6113534942269325 13.509951531887054 1.494390070438385 7.253348305821419 -24.484343826770782 3.102687858045101 0.1464197365567088 0.44459525495767593 0.07337413262575865 0.06998230121098459 1.1174841318279505 -0.6990034505724907 0.1627762452699244 0.6148491846397519 -0.020089871250092983 54.29236829280853 41.26063048839569 5.480162724852562 -27.62886106967926 -33.370008766651154 73.69507670402527 5.54743554443121 7.784334495663643 4.652318023145199 -0.2412312780506909 -0.5192132201045752 -0.3638947941362858 0.146379629150033 -0.2108906744979322 0.1857489044778049 0.08791273226961493 0.202431280631572 -0.39048667531460524 8.248128667473793 6.06831282377243 0.7410606555640697 -0.1206894835922867 -0.40675385389477015 -0.12911909027025104 3.8122035562992096 0.8373077027499676 0.015400322154164314 -0.5838737776502967 0.4834341863170266 -0.6626135017722845 10.923159420490265 0.9397498145699501 -0.684895240701735 0.11775295715779066 -0.31756344716995955 0.08719180477783084 1.865740567445755 -0.7318833097815514 -0.5027854442596436 0.10012158192694187 0.0058400072157382965 0.4727980960160494 -57.3099285364151 27.35623061656952 -19.62968498468399 26.910817623138428 -29.556301832199097 -70.81777453422546 -0.697828852571547 -21.897389441728592 1.585507057607174 -0.03429063828662038 0.10046909563243389 0.7136940769851208 0.09056328912265599 -0.3722453070804477 -0.5688019003719091 0.33170183189213276 0.3093620273284614 0.26687996461987495 -8.611887842416763 5.6891463696956635 -0.1903993310406804 0.27639254461973906 0.05773664452135563 -0.32629399560391903 -3.6836573481559753 1.2381534464657307 -0.2822657860815525 -0.24645259603857994 -0.13765767216682434 0.3136841347441077 -11.404096931219101 1.367631135508418 -0.49701190553605556 -0.06703812628984451 -0.48508957028388977 -0.31380263390019536 -2.4165838211774826 -1.54334407299757 0.3903741482645273 0.13659511925652623 -0.07942811935208738 1.112535372376442 5.38042813539505 5.0062572956085205 -0.8232638239860535 4.944708980619907 42.68480569124222 -3.242020905017853 -19.166125506162643 -19.735621511936188 -37.35844284296036 -0.2044964348897338 0.022572465240955353 0.24602384073659778 72.28925049304962 -59.09343123435974 61.67007923126221 13.321693986654282 76.87211036682129 -11.03899598121643 -0.05589623004198074 -4.856579303741455 3.989001028239727
1.9114431217312813 -1.6181656122207642 16.166195169091225 -11.042310521006584 -24.443032443523407 23.559856116771698 11.15310251712799 9.810799062252045 13.3132503926754 -1.2746556289494038 -7.685447484254837 4.403587058186531 -1.9083814881742 13.433429449796677 1.3167306035757065 7.1633219718933105 -24.43362593650818 3.1251171603798866 0.12374882586300373 0.4464148823171854 0.08823034353554249 0.11688627884723246 1.0537098348140717 -0.685467179864645 0.09967723628506064 0.5662540951743722 0.04371891729533672 53.04624617099762 41.11056625843048 6.94669134914875 -27.428784370422363 -32.68063008785248 72.62269198894501 6.340523511171341 8.336389437317848 5.815216898918152 -0.16503751510754228 -0.4789529275149107 -0.3583727963268757 0.08177686482667923 -0.3531558159738779 0.162247430998832 0.11197038693353534 0.28249920113012195 -0.36513862665742636 8.284976184368134 6.0993392765522 0.7423060387372971 -0.13097152230329812 -0.46656719874590635 -0.19221822498366237 3.85373018682003 0.8696532994508743 0.05402463488280773 -0.6224835477769375 0.4972253507003188 -0.7521104346960783 10.954882577061653 1.0654039308428764 -0.7266609650105238 0.12485175859183073 -0.33377526327967644 0.11934231268242002 1.8350602872669697 -0.7453629188239574 -0.6837975466623902 0.1742891874164343 0.024620164185762405 0.4729806538671255 -56.19952082633972 26.28233313560486 -20.46552300453186 26.36352628469467 -29.319272339344025 -69.7567731142044 -0.2616030955687165 -20.658065378665924 2.023908756673336 0.08020787732675672 0.0609882571734488 0.7774843834340572 0.07579025812447071 -0.37685250397771597 -0.5501686781644821 0.3805448580533266 0.28733899584040046 0.3019369184039533 -8.687045350670815 5.711825117468834 -0.18679936649277806 0.28247495647519827 -0.09855248965322971 -0.37408970296382904 -3.677380643785 1.2288490310311317 -0.2770307008177042 -0.3941313363611698 -0.12105963891372085 0.31943793408572674 -11.460130959749222 1.3143481314182281 -0.5281301401555538 -0.08618943393230438 -0.48456293530762196 -0.28351357905194163 -2.4006065726280212 -1.5603915229439735 0.440882365219295 0.17224679002538323 -0.11943617952056229 1.1411121301352978 3.963747024536133 4.074710011482239 -0.5325968563556671 5.988522469997406 43.41802775859833 -5.02625584602356 -18.425975292921066 -19.061833173036575 -34.81254369020462 -0.18999658059328794 0.12384383473545313 0.20659339847043157 71.71231269836426 -57.209157943725586 61.78235650062561 11.660673022270203 75.90726613998413 -10.533757656812668 1.068352349102497 -5.698554217815399 5.8161382377147675
2.139082185924053 -1.6548411846160889 16.74787713587284 -7.244014889001846 -27.2812682390213 22.522688806056976 12.109972536563873 9.170785769820213 13.787923604249954 -1.2544304318726063 -7.75298684835434 4.6125636622309685 -1.7116919159889221 13.448272794485092 0.6559154391288757 7.51039445400238 -24.44865971803665 2.13997732847929 0.09599915239959955 0.3890466224402189 0.16876737819984555 0.114272654755041 1.0294124577194452 -0.6783632654696703 -0.03876200644299388 0.493769533932209 -0.02784296404570341 53.69076490402222 40.56000530719757 9.92169164121151 -27.197645008563995 -31.440811157226562 70.87498068809509 6.324099004268646 9.55528311431408 6.481029689311981 -0.09758368832990527 -0.5485363863408566 -0.2743956819176674 0.07917478680610657 -0.3475650027394295 0.1656899624504149 0.14343043556436896 0.37906939163804054 -0.44205097015947104 8.387960940599442 6.15722268819809 0.8094314206391573 -0.14063061797060072 -0.3737259702757001 -0.3356168302707374 3.837161511182785 0.8616711292415857 0.008830439765006304 -0.699602672830224 0.5359442951157689 -0.8094991464167833 11.034147888422012 1.1909505911171436 -0.7776303961873055 0.21044209599494934 -0.3731512650847435 0.11599244317039847 1.788882538676262 -0.8732311986386776 -0.6340295355767012 0.09580888319760561 -0.04061555955559015 0.45689620077610016 -57.38412380218506 26.67633891105652 -18.861725628376007 25.807582139968872 -27.029929161071777 -65.68501353263855 1.7373157292604446 -19.41541939973831 2.143408879637718 0.024062914308160543 0.08037773659452796 0.8549916744232178 0.086087646195665 -0.3902213042601943 -0.5318016652017832 0.3056186903268099 0.25879819644615054 0.3085026307962835 -8.786845654249191 5.784769132733345 -0.29669577721506357 0.3882380621507764 -0.10461067780852318 -0.40566487703472376 -3.7548240646719933 1.23195368796587 -0.360050518065691 -0.48114052042365074 -0.15034389216452837 0.36494999192655087 -11.502080708742142 1.3174727372825146 -0.5259063374251127 -0.10720441583544016 -0.39885135367512703 -0.3199528553523123 -2.444395311176777 -1.6141393035650253 0.4648709949105978 0.19593300065025687 -0.1268994261045009 1.1943749338388443 3.3121392130851746 5.57543009519577 -0.8861374855041504 4.722524173557758 40.83857148885727 -2.522759735584259 -18.292001634836197 -17.308474481105804 -34.583724439144135 -0.26024753227829933 0.22711189929395914 0.16486300388351083 72.69509017467499 -58.599926233291626 64.50989484786987 9.675195962190628 77.348792552948 -9.764494746923447 2.422841414809227 -7.793081179261208 7.8042760491371155
2.4476379975676537 -1.6407841444015503 17.491077318787575 -1.0743360221385956 -26.703622341156006 20.20521193742752 11.79382860660553 9.684622585773468 13.687085956335068 -1.1569666676223278 -7.978744357824326 4.475378058850765 -1.4921024814248085 13.264279961585999 0.4270968586206436 7.6255906373262405 -24.924915432929993 1.8979663029313087 0.06662271916866302 0.3034951351583004 0.28572120470926166 0.011973496293649077 0.9666953701525927 -0.667389091104269 -0.12880644528195262 0.40234220679849386 0.049350508488714695 51.15008533000946 40.041528940200806 13.187570124864578 -27.28477656841278 -31.379187405109406 70.71561455726624 6.523845791816711 9.069468006491661 7.227539420127869 0.08676740806549788 -0.5913007725030184 -0.1776200719177723 0.12328782118856907 -0.35093079786747694 0.03566644387319684 0.14182140352204442 0.47311107628047466 -0.39913973305374384 8.378401547670364 6.17244690656662 0.9265141189098358 -0.24863985367119312 -0.2757578669115901 -0.425612423568964 3.7945589795708656 0.8749885484576225 -0.06833482766523957 -0.8455451019108295 0.5284442519769073 -0.8556944131851196 10.972689762711525 1.240435168147087 -0.7659033592790365 0.17944007646292448 -0.29708096757531166 0.11980822077021003 1.7391795292496681 -0.9882235340774059 -0.4503397922962904 0.1386950584128499 -0.16879824455827475 0.5477944202721119 -56.0937774181366 25.89353621006012 -21.610985845327377 25.364550948143005 -25.875490307807922 -64.33205366134644 3.5488032549619675 -19.742512106895447 3.0594077333807945 -0.1198647147975862 0.0877545028924942 0.9899787046015263 0.03584043122828007 -0.4391390969976783 -0.47461546026170254 0.24229408241808414 0.18558151787146926 0.43526602908968925 -8.814224302768707 5.79250730574131 -0.4290691204369068 0.5066049098968506 0.06868936121463776 -0.37953651510179043 -3.699379786849022 1.2415876798331738 -0.36965073086321354 -0.47412654384970665 -0.11247745016589761 0.22480000276118517 -11.406622231006622 1.2379416357725859 -0.4106198810040951 -0.07685291580855846 -0.26770453434437513 -0.20636375527828932 -2.4222248420119286 -1.6030433401465416 0.511482716538012 0.08354553021490574 -0.1998184947296977 1.1902996525168419 -0.29665499925613403 5.267453491687775 -2.5266844779253006 -0.10242652148008347 39.89162564277649 0.9001439809799194 -17.47055232524872 -15.914605557918549 -33.89110028743744 -0.41311257518827915 0.3583218762651086 0.09542274987325072 72.24864184856415 -57.86206126213074 65.84959924221039 8.330156654119492 76.6745924949646 -10.94739317893982 3.576805852353573 -10.070445612072945 9.390486180782318
